<svg width="41" height="45" viewBox="0 0 41 45" fill="none" xmlns="http://www.w3.org/2000/svg">
<path d="M39.5352 43.7334H1.46485C1.37821 43.7334 1.29512 43.699 1.23386 43.6377C1.1726 43.5764 1.13818 43.4933 1.13818 43.4067V26.9633C1.13818 26.8766 1.1726 26.7936 1.23386 26.7323C1.29512 26.671 1.37821 26.6366 1.46485 26.6366H39.5352C39.6219 26.6366 39.705 26.671 39.7662 26.7323C39.8275 26.7936 39.8619 26.8766 39.8619 26.9633V43.4067C39.8619 43.4933 39.8275 43.5764 39.7662 43.6377C39.705 43.699 39.6219 43.7334 39.5352 43.7334ZM1.79152 43.08H39.2086V27.2899H1.79152V43.08Z" fill="#1B6EB8" stroke="#1B6EB8"/>
<path d="M16.3515 27.2899H2.67196C2.62552 27.2899 2.57962 27.28 2.5373 27.2609C2.49499 27.2418 2.45725 27.2139 2.42658 27.179C2.39591 27.1441 2.37304 27.1031 2.35947 27.0587C2.3459 27.0143 2.34196 26.9675 2.3479 26.9214L4.71003 8.67385C4.72019 8.59509 4.7587 8.52274 4.81834 8.47031C4.87798 8.41788 4.95467 8.38897 5.03408 8.38899H13.989C14.0685 8.3889 14.1452 8.41777 14.2049 8.4702C14.2647 8.52263 14.3032 8.59504 14.3134 8.67385L16.6752 26.9214C16.6811 26.9675 16.6772 27.0143 16.6636 27.0587C16.65 27.1031 16.6272 27.1441 16.5965 27.179C16.5658 27.2139 16.5281 27.2418 16.4858 27.2609C16.4435 27.28 16.3976 27.2899 16.3511 27.2899H16.3515ZM3.04403 26.6366H15.98L13.7019 9.04135H5.32122L3.04403 26.6366Z" fill="#1B6EB8" stroke="#1B6EB8"/>
<path d="M13.9737 9.04133H5.04883C4.9622 9.04133 4.87911 9.00691 4.81785 8.94565C4.75658 8.88439 4.72217 8.8013 4.72217 8.71466V4.87012C4.72217 4.78349 4.75658 4.7004 4.81785 4.63914C4.87911 4.57787 4.9622 4.54346 5.04883 4.54346H13.9737C14.0603 4.54346 14.1434 4.57787 14.2047 4.63914C14.2659 4.7004 14.3004 4.78349 14.3004 4.87012V8.71466C14.3004 8.8013 14.2659 8.88439 14.2047 8.94565C14.1434 9.00691 14.0603 9.04133 13.9737 9.04133ZM5.3755 8.388H13.647V5.19679H5.3755V8.388Z" fill="#1B6EB8" stroke="#1B6EB8"/>
<path d="M26.302 27.2899H19.8272C19.7405 27.2899 19.6574 27.2555 19.5962 27.1943C19.5349 27.133 19.5005 27.0499 19.5005 26.9633V22.01C19.5005 21.9234 19.5349 21.8403 19.5962 21.779C19.6574 21.7178 19.7405 21.6833 19.8272 21.6833H26.302C26.3886 21.6833 26.4717 21.7178 26.533 21.779C26.5943 21.8403 26.6287 21.9234 26.6287 22.01V26.9633C26.6287 27.0499 26.5943 27.133 26.533 27.1943C26.4717 27.2555 26.3886 27.2899 26.302 27.2899ZM20.1538 26.6366H25.9753V22.3367H20.1538V26.6366Z" fill="#1B6EB8" stroke="#1B6EB8"/>
<path d="M36.1018 27.2899H29.627C29.5403 27.2899 29.4572 27.2555 29.396 27.1943C29.3347 27.133 29.3003 27.0499 29.3003 26.9633V22.01C29.3003 21.9234 29.3347 21.8403 29.396 21.779C29.4572 21.7178 29.5403 21.6833 29.627 21.6833H36.1018C36.1885 21.6833 36.2715 21.7178 36.3328 21.779C36.3941 21.8403 36.4285 21.9234 36.4285 22.01V26.9633C36.4285 27.0499 36.3941 27.133 36.3328 27.1943C36.2715 27.2555 36.1885 27.2899 36.1018 27.2899ZM29.9536 26.6366H35.7751V22.3367H29.9536V26.6366Z" fill="#1B6EB8" stroke="#1B6EB8"/>
<path d="M39.5352 39.454H1.46485C1.37821 39.454 1.29512 39.4196 1.23386 39.3584C1.1726 39.2971 1.13818 39.214 1.13818 39.1274C1.13818 39.0407 1.1726 38.9576 1.23386 38.8964C1.29512 38.8351 1.37821 38.8007 1.46485 38.8007H39.5352C39.6219 38.8007 39.705 38.8351 39.7662 38.8964C39.8275 38.9576 39.8619 39.0407 39.8619 39.1274C39.8619 39.214 39.8275 39.2971 39.7662 39.3584C39.705 39.4196 39.6219 39.454 39.5352 39.454Z" fill="#1B6EB8" stroke="#1B6EB8"/>
<path d="M35.737 36.2991H29.9922C29.9056 36.2991 29.8225 36.2646 29.7612 36.2034C29.6999 36.1421 29.6655 36.059 29.6655 35.9724V30.2276C29.6655 30.141 29.6999 30.0579 29.7612 29.9966C29.8225 29.9354 29.9056 29.901 29.9922 29.901H35.737C35.8236 29.901 35.9067 29.9354 35.9679 29.9966C36.0292 30.0579 36.0636 30.141 36.0636 30.2276V35.9724C36.0636 36.059 36.0292 36.1421 35.9679 36.2034C35.9067 36.2646 35.8236 36.2991 35.737 36.2991ZM30.3189 35.6457H35.4103V30.5543H30.3189V35.6457Z" fill="#1B6EB8" stroke="#1B6EB8"/>
<path d="M23.3722 36.2991H17.6274C17.5408 36.2991 17.4577 36.2646 17.3965 36.2034C17.3352 36.1421 17.3008 36.059 17.3008 35.9724V30.2276C17.3008 30.141 17.3352 30.0579 17.3965 29.9966C17.4577 29.9354 17.5408 29.901 17.6274 29.901H23.3722C23.4588 29.901 23.5419 29.9354 23.6032 29.9966C23.6645 30.0579 23.6989 30.141 23.6989 30.2276V35.9724C23.6989 36.059 23.6645 36.1421 23.6032 36.2034C23.5419 36.2646 23.4588 36.2991 23.3722 36.2991ZM17.9541 35.6457H23.0455V30.5543H17.9541V35.6457Z" fill="#1B6EB8" stroke="#1B6EB8"/>
<path d="M11.0075 36.2991H5.2627C5.17606 36.2991 5.09298 36.2646 5.03171 36.2034C4.97045 36.1421 4.93604 36.059 4.93604 35.9724V30.2276C4.93604 30.141 4.97045 30.0579 5.03171 29.9966C5.09298 29.9354 5.17606 29.901 5.2627 29.901H11.0075C11.0941 29.901 11.1772 29.9354 11.2384 29.9966C11.2997 30.0579 11.3341 30.141 11.3341 30.2276V35.9724C11.3341 36.059 11.2997 36.1421 11.2384 36.2034C11.1772 36.2646 11.0941 36.2991 11.0075 36.2991ZM5.58937 35.6457H10.6808V30.5543H5.58937V35.6457Z" fill="#1B6EB8" stroke="#1B6EB8"/>
<path d="M32.6307 3.25739C32.5601 3.25739 32.4913 3.23447 32.4347 3.19206C30.2154 1.52345 28.3841 1.80209 27.2388 2.32933C26.7662 2.55233 26.2513 2.6715 25.7288 2.67883C25.2063 2.68615 24.6883 2.58146 24.2096 2.3718C23.6138 2.08309 22.9615 1.92958 22.2994 1.92224C21.6374 1.9149 20.9819 2.05391 20.3798 2.32933C19.9072 2.55233 19.3923 2.6715 18.8698 2.67883C18.3473 2.68615 17.8292 2.58146 17.3506 2.3718C16.5282 1.96948 15.6022 1.82895 14.6974 1.96913C13.7927 2.10931 12.9526 2.52347 12.2905 3.1558C12.2303 3.21649 12.1487 3.25117 12.0632 3.25239C11.9778 3.2536 11.8952 3.22126 11.8333 3.16231C11.7714 3.10335 11.7351 3.02248 11.7321 2.93704C11.7292 2.85161 11.7598 2.76842 11.8175 2.70533C12.5786 1.98454 13.5395 1.5102 14.5745 1.34433C15.6096 1.17846 16.6706 1.32878 17.6188 1.77563C18.0123 1.94684 18.4379 2.03186 18.867 2.02498C19.2962 2.01811 19.7188 1.9195 20.1067 1.73578C20.7932 1.42003 21.5409 1.25987 22.2965 1.26676C23.0521 1.27365 23.7969 1.44742 24.4775 1.77563C24.8711 1.94682 25.2967 2.03184 25.7259 2.02496C26.1551 2.01809 26.5778 1.91949 26.9657 1.73578C28.2724 1.13373 30.3506 0.807066 32.8271 2.66972C32.8819 2.71086 32.9224 2.76821 32.9429 2.83365C32.9633 2.8991 32.9627 2.96931 32.941 3.03436C32.9193 3.0994 32.8777 3.15597 32.8221 3.19606C32.7665 3.23615 32.6996 3.25772 32.6311 3.25772L32.6307 3.25739Z" fill="#1B6EB8" stroke="#1B6EB8"/>
<path d="M38.5283 7.20288C38.4576 7.20288 38.3888 7.17996 38.3323 7.13755C36.1109 5.46861 34.2816 5.74791 33.136 6.27482C32.6634 6.49777 32.1486 6.61691 31.6262 6.62424C31.1037 6.63156 30.5857 6.5269 30.1071 6.31729C29.5113 6.02865 28.859 5.87517 28.197 5.86783C27.5349 5.86049 26.8794 5.99946 26.2773 6.27482C25.8047 6.49782 25.2898 6.61699 24.7673 6.62431C24.2448 6.63164 23.7268 6.52695 23.2481 6.31729C22.4242 5.92198 21.4998 5.78531 20.5967 5.92524C19.6937 6.06517 18.8541 6.47516 18.1884 7.10129C18.1592 7.13401 18.1238 7.16053 18.0843 7.17929C18.0447 7.19806 18.0018 7.20867 17.958 7.2105C17.9142 7.21233 17.8706 7.20534 17.8296 7.18995C17.7886 7.17456 17.7511 7.15108 17.7193 7.12091C17.6876 7.09074 17.6622 7.0545 17.6448 7.01433C17.6273 6.97416 17.6181 6.93089 17.6177 6.8871C17.6173 6.8433 17.6257 6.79988 17.6424 6.7594C17.6591 6.71892 17.6838 6.68221 17.715 6.65147C18.4758 5.93045 19.4366 5.45591 20.4716 5.28997C21.5066 5.12403 22.5676 5.27442 23.5156 5.72145C23.9093 5.89273 24.335 5.97779 24.7642 5.97092C25.1935 5.96404 25.6162 5.86539 26.0042 5.68159C26.6906 5.3659 27.4384 5.20577 28.1939 5.21266C28.9494 5.21954 29.6941 5.39328 30.3747 5.72145C30.7683 5.89264 31.1939 5.97765 31.6231 5.97078C32.0522 5.9639 32.475 5.8653 32.8629 5.68159C34.1696 5.07955 36.2475 4.75255 38.7246 6.61554C38.7794 6.65667 38.82 6.71402 38.8404 6.77947C38.8608 6.84491 38.8602 6.91513 38.8385 6.98017C38.8168 7.04521 38.7752 7.10179 38.7196 7.14188C38.664 7.18196 38.5972 7.20354 38.5286 7.20354L38.5283 7.20288Z" fill="#1B6EB8" stroke="#1B6EB8"/>
<path d="M39.5352 43.7334H1.46485C1.37821 43.7334 1.29512 43.699 1.23386 43.6377C1.1726 43.5764 1.13818 43.4933 1.13818 43.4067V26.9633C1.13818 26.8766 1.1726 26.7936 1.23386 26.7323C1.29512 26.671 1.37821 26.6366 1.46485 26.6366H39.5352C39.6219 26.6366 39.705 26.671 39.7662 26.7323C39.8275 26.7936 39.8619 26.8766 39.8619 26.9633V43.4067C39.8619 43.4933 39.8275 43.5764 39.7662 43.6377C39.705 43.699 39.6219 43.7334 39.5352 43.7334ZM1.79152 43.08H39.2086V27.2899H1.79152V43.08Z" fill="#1B6EB8" stroke="#1B6EB8"/>
<path d="M16.3515 27.2899H2.67196C2.62552 27.2899 2.57962 27.28 2.5373 27.2609C2.49499 27.2418 2.45725 27.2139 2.42658 27.179C2.39591 27.1441 2.37304 27.1031 2.35947 27.0587C2.3459 27.0143 2.34196 26.9675 2.3479 26.9214L4.71003 8.67385C4.72019 8.59509 4.7587 8.52274 4.81834 8.47031C4.87798 8.41788 4.95467 8.38897 5.03408 8.38899H13.989C14.0685 8.3889 14.1452 8.41777 14.2049 8.4702C14.2647 8.52263 14.3032 8.59504 14.3134 8.67385L16.6752 26.9214C16.6811 26.9675 16.6772 27.0143 16.6636 27.0587C16.65 27.1031 16.6272 27.1441 16.5965 27.179C16.5658 27.2139 16.5281 27.2418 16.4858 27.2609C16.4435 27.28 16.3976 27.2899 16.3511 27.2899H16.3515ZM3.04403 26.6366H15.98L13.7019 9.04135H5.32122L3.04403 26.6366Z" fill="#1B6EB8" stroke="#1B6EB8"/>
<path d="M13.9737 9.04133H5.04883C4.9622 9.04133 4.87911 9.00691 4.81785 8.94565C4.75658 8.88439 4.72217 8.8013 4.72217 8.71466V4.87012C4.72217 4.78349 4.75658 4.7004 4.81785 4.63914C4.87911 4.57787 4.9622 4.54346 5.04883 4.54346H13.9737C14.0603 4.54346 14.1434 4.57787 14.2047 4.63914C14.2659 4.7004 14.3004 4.78349 14.3004 4.87012V8.71466C14.3004 8.8013 14.2659 8.88439 14.2047 8.94565C14.1434 9.00691 14.0603 9.04133 13.9737 9.04133ZM5.3755 8.388H13.647V5.19679H5.3755V8.388Z" fill="#1B6EB8" stroke="#1B6EB8"/>
<path d="M26.302 27.2899H19.8272C19.7405 27.2899 19.6574 27.2555 19.5962 27.1943C19.5349 27.133 19.5005 27.0499 19.5005 26.9633V22.01C19.5005 21.9234 19.5349 21.8403 19.5962 21.779C19.6574 21.7178 19.7405 21.6833 19.8272 21.6833H26.302C26.3886 21.6833 26.4717 21.7178 26.533 21.779C26.5943 21.8403 26.6287 21.9234 26.6287 22.01V26.9633C26.6287 27.0499 26.5943 27.133 26.533 27.1943C26.4717 27.2555 26.3886 27.2899 26.302 27.2899ZM20.1538 26.6366H25.9753V22.3367H20.1538V26.6366Z" fill="#1B6EB8" stroke="#1B6EB8"/>
<path d="M36.1018 27.2899H29.627C29.5403 27.2899 29.4572 27.2555 29.396 27.1943C29.3347 27.133 29.3003 27.0499 29.3003 26.9633V22.01C29.3003 21.9234 29.3347 21.8403 29.396 21.779C29.4572 21.7178 29.5403 21.6833 29.627 21.6833H36.1018C36.1885 21.6833 36.2715 21.7178 36.3328 21.779C36.3941 21.8403 36.4285 21.9234 36.4285 22.01V26.9633C36.4285 27.0499 36.3941 27.133 36.3328 27.1943C36.2715 27.2555 36.1885 27.2899 36.1018 27.2899ZM29.9536 26.6366H35.7751V22.3367H29.9536V26.6366Z" fill="#1B6EB8" stroke="#1B6EB8"/>
<path d="M39.5352 39.454H1.46485C1.37821 39.454 1.29512 39.4196 1.23386 39.3584C1.1726 39.2971 1.13818 39.214 1.13818 39.1274C1.13818 39.0407 1.1726 38.9576 1.23386 38.8964C1.29512 38.8351 1.37821 38.8007 1.46485 38.8007H39.5352C39.6219 38.8007 39.705 38.8351 39.7662 38.8964C39.8275 38.9576 39.8619 39.0407 39.8619 39.1274C39.8619 39.214 39.8275 39.2971 39.7662 39.3584C39.705 39.4196 39.6219 39.454 39.5352 39.454Z" fill="#1B6EB8" stroke="#1B6EB8"/>
<path d="M35.737 36.2991H29.9922C29.9056 36.2991 29.8225 36.2646 29.7612 36.2034C29.6999 36.1421 29.6655 36.059 29.6655 35.9724V30.2276C29.6655 30.141 29.6999 30.0579 29.7612 29.9966C29.8225 29.9354 29.9056 29.901 29.9922 29.901H35.737C35.8236 29.901 35.9067 29.9354 35.9679 29.9966C36.0292 30.0579 36.0636 30.141 36.0636 30.2276V35.9724C36.0636 36.059 36.0292 36.1421 35.9679 36.2034C35.9067 36.2646 35.8236 36.2991 35.737 36.2991ZM30.3189 35.6457H35.4103V30.5543H30.3189V35.6457Z" fill="#1B6EB8" stroke="#1B6EB8"/>
<path d="M23.3722 36.2991H17.6274C17.5408 36.2991 17.4577 36.2646 17.3965 36.2034C17.3352 36.1421 17.3008 36.059 17.3008 35.9724V30.2276C17.3008 30.141 17.3352 30.0579 17.3965 29.9966C17.4577 29.9354 17.5408 29.901 17.6274 29.901H23.3722C23.4588 29.901 23.5419 29.9354 23.6032 29.9966C23.6645 30.0579 23.6989 30.141 23.6989 30.2276V35.9724C23.6989 36.059 23.6645 36.1421 23.6032 36.2034C23.5419 36.2646 23.4588 36.2991 23.3722 36.2991ZM17.9541 35.6457H23.0455V30.5543H17.9541V35.6457Z" fill="#1B6EB8" stroke="#1B6EB8"/>
<path d="M11.0075 36.2991H5.2627C5.17606 36.2991 5.09298 36.2646 5.03171 36.2034C4.97045 36.1421 4.93604 36.059 4.93604 35.9724V30.2276C4.93604 30.141 4.97045 30.0579 5.03171 29.9966C5.09298 29.9354 5.17606 29.901 5.2627 29.901H11.0075C11.0941 29.901 11.1772 29.9354 11.2384 29.9966C11.2997 30.0579 11.3341 30.141 11.3341 30.2276V35.9724C11.3341 36.059 11.2997 36.1421 11.2384 36.2034C11.1772 36.2646 11.0941 36.2991 11.0075 36.2991ZM5.58937 35.6457H10.6808V30.5543H5.58937V35.6457Z" fill="#1B6EB8" stroke="#1B6EB8"/>
<path d="M32.6307 3.25739C32.5601 3.25739 32.4913 3.23447 32.4347 3.19206C30.2154 1.52345 28.3841 1.80209 27.2388 2.32933C26.7662 2.55233 26.2513 2.6715 25.7288 2.67883C25.2063 2.68615 24.6883 2.58146 24.2096 2.3718C23.6138 2.08309 22.9615 1.92958 22.2994 1.92224C21.6374 1.9149 20.9819 2.05391 20.3798 2.32933C19.9072 2.55233 19.3923 2.6715 18.8698 2.67883C18.3473 2.68615 17.8292 2.58146 17.3506 2.3718C16.5282 1.96948 15.6022 1.82895 14.6974 1.96913C13.7927 2.10931 12.9526 2.52347 12.2905 3.1558C12.2303 3.21649 12.1487 3.25117 12.0632 3.25239C11.9778 3.2536 11.8952 3.22126 11.8333 3.16231C11.7714 3.10335 11.7351 3.02248 11.7321 2.93704C11.7292 2.85161 11.7598 2.76842 11.8175 2.70533C12.5786 1.98454 13.5395 1.5102 14.5745 1.34433C15.6096 1.17846 16.6706 1.32878 17.6188 1.77563C18.0123 1.94684 18.4379 2.03186 18.867 2.02498C19.2962 2.01811 19.7188 1.9195 20.1067 1.73578C20.7932 1.42003 21.5409 1.25987 22.2965 1.26676C23.0521 1.27365 23.7969 1.44742 24.4775 1.77563C24.8711 1.94682 25.2967 2.03184 25.7259 2.02496C26.1551 2.01809 26.5778 1.91949 26.9657 1.73578C28.2724 1.13373 30.3506 0.807066 32.8271 2.66972C32.8819 2.71086 32.9224 2.76821 32.9429 2.83365C32.9633 2.8991 32.9627 2.96931 32.941 3.03436C32.9193 3.0994 32.8777 3.15597 32.8221 3.19606C32.7665 3.23615 32.6996 3.25772 32.6311 3.25772L32.6307 3.25739Z" fill="#1B6EB8" stroke="#1B6EB8"/>
<path d="M38.5283 7.20288C38.4576 7.20288 38.3888 7.17996 38.3323 7.13755C36.1109 5.46861 34.2816 5.74791 33.136 6.27482C32.6634 6.49777 32.1486 6.61691 31.6262 6.62424C31.1037 6.63156 30.5857 6.5269 30.1071 6.31729C29.5113 6.02865 28.859 5.87517 28.197 5.86783C27.5349 5.86049 26.8794 5.99946 26.2773 6.27482C25.8047 6.49782 25.2898 6.61699 24.7673 6.62431C24.2448 6.63164 23.7268 6.52695 23.2481 6.31729C22.4242 5.92198 21.4998 5.78531 20.5967 5.92524C19.6937 6.06517 18.8541 6.47516 18.1884 7.10129C18.1592 7.13401 18.1238 7.16053 18.0843 7.17929C18.0447 7.19806 18.0018 7.20867 17.958 7.2105C17.9142 7.21233 17.8706 7.20534 17.8296 7.18995C17.7886 7.17456 17.7511 7.15108 17.7193 7.12091C17.6876 7.09074 17.6622 7.0545 17.6448 7.01433C17.6273 6.97416 17.6181 6.93089 17.6177 6.8871C17.6173 6.8433 17.6257 6.79988 17.6424 6.7594C17.6591 6.71892 17.6838 6.68221 17.715 6.65147C18.4758 5.93045 19.4366 5.45591 20.4716 5.28997C21.5066 5.12403 22.5676 5.27442 23.5156 5.72145C23.9093 5.89273 24.335 5.97779 24.7642 5.97092C25.1935 5.96404 25.6162 5.86539 26.0042 5.68159C26.6906 5.3659 27.4384 5.20577 28.1939 5.21266C28.9494 5.21954 29.6941 5.39328 30.3747 5.72145C30.7683 5.89264 31.1939 5.97765 31.6231 5.97078C32.0522 5.9639 32.475 5.8653 32.8629 5.68159C34.1696 5.07955 36.2475 4.75255 38.7246 6.61554C38.7794 6.65667 38.82 6.71402 38.8404 6.77947C38.8608 6.84491 38.8602 6.91513 38.8385 6.98017C38.8168 7.04521 38.7752 7.10179 38.7196 7.14188C38.664 7.18196 38.5972 7.20354 38.5286 7.20354L38.5283 7.20288Z" fill="#1B6EB8" stroke="#1B6EB8"/>
</svg>
