<svg width="47" height="47" viewBox="0 0 47 47" fill="none" xmlns="http://www.w3.org/2000/svg">
<path d="M22.0714 21.7844C22.0017 21.7845 21.9335 21.7633 21.8762 21.7235C21.8005 21.6716 21.7486 21.5917 21.7317 21.5015C21.7149 21.4113 21.7346 21.3181 21.7865 21.2424L29.8503 9.48547C29.8735 9.4509 29.9031 9.42107 29.9375 9.39754L32.8452 7.36525L34.054 3.5146L31.5201 1.77619L28.3632 4.29137L27.5158 7.73633C27.5058 7.77673 27.4886 7.81497 27.4649 7.84918L19.4005 19.6061C19.3755 19.6453 19.343 19.6791 19.3047 19.7055C19.2664 19.7318 19.2232 19.7502 19.1776 19.7595C19.1321 19.7688 19.0852 19.7688 19.0396 19.7596C18.994 19.7504 18.9508 19.7321 18.9125 19.7058C18.8742 19.6795 18.8415 19.6457 18.8165 19.6065C18.7915 19.5673 18.7747 19.5235 18.767 19.4777C18.7593 19.4318 18.7609 19.3849 18.7717 19.3397C18.7826 19.2945 18.8024 19.2519 18.83 19.2146L26.8581 7.5096L27.7193 4.01029C27.7376 3.93605 27.78 3.86996 27.8398 3.82233L31.2889 1.07522C31.3469 1.02912 31.4181 1.00283 31.4921 1.00022C31.5662 0.997599 31.6391 1.01879 31.7002 1.06069L34.6567 3.08848C34.7178 3.13037 34.7639 3.19078 34.7881 3.26082C34.8124 3.33086 34.8135 3.40683 34.7913 3.47756L33.4697 7.6851C33.4467 7.75806 33.4002 7.82136 33.3375 7.8651L30.3854 9.92959L22.358 21.6339C22.3262 21.6804 22.2834 21.7185 22.2334 21.7447C22.1835 21.771 22.1279 21.7846 22.0714 21.7844Z" fill="#1B6EB8" stroke="#1B6EB8"/>
<path d="M8.1908 45.9992C7.57494 45.9981 6.97389 45.8103 6.46693 45.4606L2.32239 42.6193C1.8606 42.3065 1.49477 41.8715 1.26569 41.3629C1.03662 40.8543 0.953284 40.2921 1.02499 39.7389C1.28876 37.7042 2.61004 34.5258 7.40675 30.9382C10.6236 28.5342 11.9269 26.2457 12.4541 24.7489C12.9618 23.3057 13.6568 21.9355 14.5213 20.6733C14.5731 20.5976 14.6528 20.5456 14.7429 20.5286C14.8332 20.5122 14.9263 20.532 15.0021 20.5836L22.458 25.6974C22.5336 25.7493 22.5855 25.8291 22.6023 25.9193C22.6191 26.0094 22.5995 26.1025 22.5477 26.1782C21.6815 27.4393 20.6534 28.5811 19.4897 29.5744C18.2837 30.6059 16.6166 32.6472 15.5345 36.5128C13.9159 42.2773 11.4274 44.6551 9.62493 45.635C9.1848 45.8743 8.69175 45.9995 8.1908 45.9992ZM6.85844 44.8915C7.21201 45.1376 7.62702 45.2807 8.05716 45.3046C8.48729 45.3286 8.91563 45.2325 9.29435 45.0272C10.9798 44.1113 13.3146 41.8581 14.8675 36.3265C15.998 32.2934 17.7603 30.1428 19.0397 29.0489C20.0689 28.1705 20.9881 27.1709 21.7775 26.072L14.899 21.3528C14.1578 22.4851 13.5562 23.7028 13.1073 24.9795C12.5479 26.5659 11.1771 28.9845 7.8211 31.4928C3.21721 34.9353 1.95823 37.9258 1.71142 39.8283C1.65675 40.255 1.72166 40.6886 1.8989 41.0807C2.07615 41.4728 2.35877 41.8079 2.71528 42.0489L6.85844 44.8915Z" fill="#1B6EB8" stroke="#1B6EB8"/>
<path d="M21.0122 25.4721C20.9422 25.4721 20.8739 25.4509 20.8163 25.4111L15.8617 22.0122C15.7861 21.9603 15.7341 21.8804 15.7173 21.7902C15.7005 21.7 15.7202 21.6068 15.7721 21.5311L17.1269 19.5559C17.3742 19.2071 17.7496 18.9706 18.1709 18.898C18.5922 18.8254 19.0251 18.9227 19.3749 19.1685L22.2033 21.107C22.5591 21.3444 22.8063 21.7132 22.8906 22.1325C22.975 22.5517 22.8896 22.9874 22.6533 23.3439L21.2992 25.3191C21.247 25.3947 21.1672 25.4466 21.0769 25.4638C21.0556 25.4683 21.034 25.4711 21.0122 25.4721ZM16.5388 21.6373L20.9226 24.6437L22.0811 22.9541C22.214 22.7492 22.2604 22.5001 22.2099 22.2611C22.1595 22.0222 22.0165 21.8129 21.8122 21.6792L18.9837 19.7407C18.7854 19.5986 18.539 19.5406 18.2981 19.5795C18.0572 19.6185 17.8415 19.7511 17.6981 19.9484L16.5388 21.6373Z" fill="#1B6EB8" stroke="#1B6EB8"/>
<path d="M8.40787 42.6176H8.37637C7.50142 42.5861 6.65494 42.2986 5.94184 41.7906C4.2879 40.6556 3.61774 38.8548 4.41598 37.6907C4.63848 37.3928 4.93267 37.156 5.27122 37.0023C5.60976 36.8486 5.98167 36.783 6.35238 36.8115C7.22814 36.8442 8.07507 37.133 8.7883 37.6423C9.51927 38.1243 10.0926 38.8104 10.437 39.6154C10.596 39.9512 10.668 40.3216 10.6465 40.6926C10.6249 41.0635 10.5105 41.4231 10.3138 41.7383C10.0939 42.0314 9.80459 42.2652 9.47189 42.4187C9.13919 42.5722 8.77355 42.6405 8.40787 42.6176ZM6.31708 37.5034C6.06475 37.4832 5.81131 37.5254 5.57917 37.6263C5.34703 37.7272 5.14334 37.8838 4.9861 38.0822C4.42602 38.8981 5.04322 40.335 6.33231 41.2195C6.93184 41.65 7.64441 41.8954 8.38191 41.9253C8.63896 41.949 8.89788 41.9083 9.13527 41.8069C9.37267 41.7055 9.58105 41.5466 9.74161 41.3444C9.87182 41.1219 9.94462 40.8705 9.95345 40.6128C9.96227 40.3551 9.90684 40.0993 9.79215 39.8684C9.49842 39.1916 9.01284 38.6156 8.39541 38.2117C7.79525 37.7806 7.08205 37.5345 6.34373 37.5038L6.31708 37.5034Z" fill="#1B6EB8" stroke="#1B6EB8"/>
<path d="M35.2228 45.9992H33.0164C32.936 45.9992 32.858 45.9712 32.796 45.9199C32.7339 45.8687 32.6917 45.7975 32.6765 45.7185L32.195 43.2095C31.0725 42.9769 30.0045 42.5328 29.0481 41.901L26.9323 43.34C26.8657 43.3853 26.7852 43.4059 26.705 43.3983C26.6247 43.3906 26.5497 43.3552 26.4927 43.2981L24.9333 41.7328C24.8765 41.6758 24.8413 41.6009 24.8338 41.5207C24.8263 41.4406 24.8469 41.3604 24.8921 41.2939L26.3255 39.1823C25.6945 38.2248 25.2518 37.1557 25.0212 36.0323L22.5143 35.5563C22.4352 35.5413 22.3638 35.4991 22.3124 35.437C22.2611 35.375 22.2329 35.2969 22.2329 35.2164V33.0079C22.2329 32.9273 22.2609 32.8492 22.3123 32.7871C22.3637 32.7249 22.4351 32.6827 22.5143 32.6676L25.0212 32.192C25.2517 31.0686 25.6944 29.9995 26.3255 29.042L24.8921 26.9304C24.847 26.8639 24.8264 26.7838 24.8339 26.7037C24.8414 26.6237 24.8766 26.5488 24.9333 26.4918L26.4927 24.9265C26.5495 24.8693 26.6245 24.8337 26.7048 24.8258C26.7851 24.818 26.8655 24.8384 26.9323 24.8836L29.0481 26.3222C30.0045 25.6904 31.0725 25.2463 32.195 25.0137L32.6765 22.5051C32.6916 22.4261 32.7338 22.3547 32.7959 22.3034C32.8579 22.2521 32.9359 22.2241 33.0164 22.2241H35.2228C35.3035 22.224 35.3816 22.2522 35.4438 22.3036C35.5059 22.355 35.5481 22.4266 35.5631 22.5058L36.0391 25.0127C37.1625 25.2433 38.2316 25.6861 39.1891 26.3174L41.3007 24.8836C41.3673 24.8384 41.4476 24.8178 41.5278 24.8255C41.608 24.8331 41.683 24.8685 41.7399 24.9255L43.2997 26.4908C43.3564 26.5477 43.3916 26.6227 43.3991 26.7027C43.4066 26.7827 43.386 26.8629 43.3409 26.9294L41.9078 29.0409C42.5425 29.9979 42.9872 31.0681 43.2177 32.1931L45.7187 32.6687C45.7979 32.6837 45.8693 32.726 45.9207 32.7881C45.9721 32.8502 46.0001 32.9283 46.0001 33.0089V35.2157C46.0001 35.2963 45.9719 35.3743 45.9206 35.4363C45.8692 35.4984 45.7978 35.5406 45.7187 35.5556L43.2177 36.0316C42.9872 37.1566 42.5425 38.2267 41.9078 39.1837L43.3409 41.2953C43.3861 41.3618 43.4067 41.442 43.3992 41.5221C43.3917 41.6022 43.3565 41.6772 43.2997 41.7342L41.7399 43.2995C41.683 43.3565 41.608 43.3919 41.5278 43.3995C41.4476 43.4072 41.3673 43.3866 41.3007 43.3414L39.1891 41.908C38.2315 42.5389 37.1624 42.9815 36.0391 43.2123L35.5631 45.7192C35.5477 45.7981 35.5054 45.8692 35.4433 45.9203C35.3812 45.9714 35.3032 45.9993 35.2228 45.9992ZM33.3023 45.3069H34.9362L35.4028 42.8492C35.4158 42.7802 35.4494 42.7167 35.4992 42.6673C35.549 42.6178 35.6127 42.5847 35.6818 42.5722C36.8721 42.3603 38.0022 41.8926 38.9942 41.2015C39.0517 41.1617 39.1198 41.1402 39.1897 41.1399C39.2596 41.1396 39.3279 41.1605 39.3857 41.1997L41.453 42.6037L42.6084 41.4441L41.2037 39.3755C41.1643 39.3175 41.1434 39.2488 41.1438 39.1787C41.1442 39.1085 41.166 39.0401 41.2062 38.9826C41.9012 37.993 42.3708 36.863 42.5818 35.6723C42.5941 35.6031 42.6272 35.5393 42.6767 35.4894C42.7262 35.4396 42.7897 35.4059 42.8587 35.3929L45.3085 34.928V33.2952L42.858 32.8289C42.789 32.816 42.7256 32.7824 42.6761 32.7326C42.6266 32.6827 42.5935 32.619 42.5811 32.5499C42.3702 31.359 41.9006 30.2288 41.2055 29.2389C41.1653 29.1814 41.1435 29.113 41.1431 29.0429C41.1427 28.9727 41.1636 28.9041 41.203 28.8461L42.6084 26.7771L41.453 25.6174L39.3857 27.0215C39.3281 27.061 39.2598 27.0821 39.19 27.0821C39.1201 27.0821 39.0518 27.061 38.9942 27.0215C38.0026 26.33 36.8725 25.8623 35.6822 25.651C35.613 25.6387 35.5492 25.6056 35.4993 25.5561C35.4494 25.5066 35.4158 25.4431 35.4028 25.3741L34.9362 22.9164H33.3023L32.8309 25.3741C32.8181 25.4428 32.7848 25.5061 32.7353 25.5555C32.6859 25.6049 32.6227 25.6382 32.5539 25.651C31.3653 25.8647 30.2371 26.3333 29.2468 27.0246C29.1892 27.0648 29.1208 27.0866 29.0505 27.087C28.9803 27.0875 28.9116 27.0665 28.8535 27.027L26.7804 25.6174L25.6253 26.7771L27.0313 28.8454C27.0709 28.903 27.092 28.9712 27.092 29.0411C27.092 29.111 27.0709 29.1792 27.0313 29.2369C26.3402 30.2287 25.8726 31.3587 25.6609 32.5489C25.6486 32.6181 25.6154 32.6818 25.566 32.7317C25.5165 32.7816 25.453 32.8153 25.384 32.8282L22.9263 33.2945V34.928L25.384 35.3943C25.4531 35.4073 25.5166 35.441 25.5661 35.491C25.6155 35.5409 25.6486 35.6048 25.6609 35.674C25.8726 36.864 26.3402 37.9938 27.0313 38.9854C27.0709 39.043 27.092 39.1112 27.092 39.1811C27.092 39.251 27.0709 39.3192 27.0313 39.3769L25.627 41.4455L26.7821 42.6051L28.8553 41.1952C28.9133 41.1557 28.9821 41.1349 29.0523 41.1353C29.1225 41.1358 29.191 41.1577 29.2485 41.198C30.2384 41.8898 31.3664 42.3591 32.555 42.5736C32.6235 42.5863 32.6865 42.6194 32.7359 42.6685C32.7854 42.7176 32.8188 42.7804 32.8319 42.8488L33.3023 45.3069Z" fill="#1B6EB8" stroke="#1B6EB8"/>
<path d="M34.1132 39.6853C33.0109 39.6853 31.9334 39.3584 31.0169 38.746C30.1004 38.1336 29.3861 37.2632 28.9643 36.2449C28.5425 35.2265 28.4321 34.1059 28.6471 33.0249C28.8622 31.9438 29.393 30.9507 30.1724 30.1713C30.9518 29.3919 31.9448 28.8611 33.0259 28.6461C34.107 28.431 35.2276 28.5414 36.2459 28.9632C37.2643 29.385 38.1347 30.0994 38.7471 31.0159C39.3595 31.9324 39.6863 33.0099 39.6863 34.1121C39.6852 35.5899 39.0977 37.0068 38.0528 38.0517C37.0078 39.0966 35.5909 39.6842 34.1132 39.6853ZM34.1132 29.2313C33.1478 29.2313 32.2042 29.5176 31.4015 30.0539C30.5989 30.5902 29.9733 31.3525 29.6039 32.2443C29.2345 33.1362 29.1378 34.1175 29.3261 35.0643C29.5145 36.0111 29.9793 36.8808 30.6619 37.5634C31.3445 38.246 32.2142 38.7108 33.161 38.8992C34.1078 39.0875 35.0891 38.9908 35.981 38.6214C36.8728 38.252 37.6351 37.6264 38.1714 36.8238C38.7077 36.0211 38.994 35.0775 38.994 34.1121C38.9936 32.8176 38.4793 31.5762 37.5641 30.6607C36.6489 29.7451 35.4077 29.2304 34.1132 29.2296V29.2313Z" fill="#1B6EB8" stroke="#1B6EB8"/>
<path d="M22.0714 21.7844C22.0017 21.7845 21.9335 21.7633 21.8762 21.7235C21.8005 21.6716 21.7486 21.5917 21.7317 21.5015C21.7149 21.4113 21.7346 21.3181 21.7865 21.2424L29.8503 9.48547C29.8735 9.4509 29.9031 9.42107 29.9375 9.39754L32.8452 7.36525L34.054 3.5146L31.5201 1.77619L28.3632 4.29137L27.5158 7.73633C27.5058 7.77673 27.4886 7.81497 27.4649 7.84918L19.4005 19.6061C19.3755 19.6453 19.343 19.6791 19.3047 19.7055C19.2664 19.7318 19.2232 19.7502 19.1776 19.7595C19.1321 19.7688 19.0852 19.7688 19.0396 19.7596C18.994 19.7504 18.9508 19.7321 18.9125 19.7058C18.8742 19.6795 18.8415 19.6457 18.8165 19.6065C18.7915 19.5673 18.7747 19.5235 18.767 19.4777C18.7593 19.4318 18.7609 19.3849 18.7717 19.3397C18.7826 19.2945 18.8024 19.2519 18.83 19.2146L26.8581 7.5096L27.7193 4.01029C27.7376 3.93605 27.78 3.86996 27.8398 3.82233L31.2889 1.07522C31.3469 1.02912 31.4181 1.00283 31.4921 1.00022C31.5662 0.997599 31.6391 1.01879 31.7002 1.06069L34.6567 3.08848C34.7178 3.13037 34.7639 3.19078 34.7881 3.26082C34.8124 3.33086 34.8135 3.40683 34.7913 3.47756L33.4697 7.6851C33.4467 7.75806 33.4002 7.82136 33.3375 7.8651L30.3854 9.92959L22.358 21.6339C22.3262 21.6804 22.2834 21.7185 22.2334 21.7447C22.1835 21.771 22.1279 21.7846 22.0714 21.7844Z" fill="#1B6EB8" stroke="#1B6EB8"/>
<path d="M8.1908 45.9992C7.57494 45.9981 6.97389 45.8103 6.46693 45.4606L2.32239 42.6193C1.8606 42.3065 1.49477 41.8715 1.26569 41.3629C1.03662 40.8543 0.953284 40.2921 1.02499 39.7389C1.28876 37.7042 2.61004 34.5258 7.40675 30.9382C10.6236 28.5342 11.9269 26.2457 12.4541 24.7489C12.9618 23.3057 13.6568 21.9355 14.5213 20.6733C14.5731 20.5976 14.6528 20.5456 14.7429 20.5286C14.8332 20.5122 14.9263 20.532 15.0021 20.5836L22.458 25.6974C22.5336 25.7493 22.5855 25.8291 22.6023 25.9193C22.6191 26.0094 22.5995 26.1025 22.5477 26.1782C21.6815 27.4393 20.6534 28.5811 19.4897 29.5744C18.2837 30.6059 16.6166 32.6472 15.5345 36.5128C13.9159 42.2773 11.4274 44.6551 9.62493 45.635C9.1848 45.8743 8.69175 45.9995 8.1908 45.9992ZM6.85844 44.8915C7.21201 45.1376 7.62702 45.2807 8.05716 45.3046C8.48729 45.3286 8.91563 45.2325 9.29435 45.0272C10.9798 44.1113 13.3146 41.8581 14.8675 36.3265C15.998 32.2934 17.7603 30.1428 19.0397 29.0489C20.0689 28.1705 20.9881 27.1709 21.7775 26.072L14.899 21.3528C14.1578 22.4851 13.5562 23.7028 13.1073 24.9795C12.5479 26.5659 11.1771 28.9845 7.8211 31.4928C3.21721 34.9353 1.95823 37.9258 1.71142 39.8283C1.65675 40.255 1.72166 40.6886 1.8989 41.0807C2.07615 41.4728 2.35877 41.8079 2.71528 42.0489L6.85844 44.8915Z" fill="#1B6EB8" stroke="#1B6EB8"/>
<path d="M21.0122 25.4721C20.9422 25.4721 20.8739 25.4509 20.8163 25.4111L15.8617 22.0122C15.7861 21.9603 15.7341 21.8804 15.7173 21.7902C15.7005 21.7 15.7202 21.6068 15.7721 21.5311L17.1269 19.5559C17.3742 19.2071 17.7496 18.9706 18.1709 18.898C18.5922 18.8254 19.0251 18.9227 19.3749 19.1685L22.2033 21.107C22.5591 21.3444 22.8063 21.7132 22.8906 22.1325C22.975 22.5517 22.8896 22.9874 22.6533 23.3439L21.2992 25.3191C21.247 25.3947 21.1672 25.4466 21.0769 25.4638C21.0556 25.4683 21.034 25.4711 21.0122 25.4721ZM16.5388 21.6373L20.9226 24.6437L22.0811 22.9541C22.214 22.7492 22.2604 22.5001 22.2099 22.2611C22.1595 22.0222 22.0165 21.8129 21.8122 21.6792L18.9837 19.7407C18.7854 19.5986 18.539 19.5406 18.2981 19.5795C18.0572 19.6185 17.8415 19.7511 17.6981 19.9484L16.5388 21.6373Z" fill="#1B6EB8" stroke="#1B6EB8"/>
<path d="M8.40787 42.6176H8.37637C7.50142 42.5861 6.65494 42.2986 5.94184 41.7906C4.2879 40.6556 3.61774 38.8548 4.41598 37.6907C4.63848 37.3928 4.93267 37.156 5.27122 37.0023C5.60976 36.8486 5.98167 36.783 6.35238 36.8115C7.22814 36.8442 8.07507 37.133 8.7883 37.6423C9.51927 38.1243 10.0926 38.8104 10.437 39.6154C10.596 39.9512 10.668 40.3216 10.6465 40.6926C10.6249 41.0635 10.5105 41.4231 10.3138 41.7383C10.0939 42.0314 9.80459 42.2652 9.47189 42.4187C9.13919 42.5722 8.77355 42.6405 8.40787 42.6176ZM6.31708 37.5034C6.06475 37.4832 5.81131 37.5254 5.57917 37.6263C5.34703 37.7272 5.14334 37.8838 4.9861 38.0822C4.42602 38.8981 5.04322 40.335 6.33231 41.2195C6.93184 41.65 7.64441 41.8954 8.38191 41.9253C8.63896 41.949 8.89788 41.9083 9.13527 41.8069C9.37267 41.7055 9.58105 41.5466 9.74161 41.3444C9.87182 41.1219 9.94462 40.8705 9.95345 40.6128C9.96227 40.3551 9.90684 40.0993 9.79215 39.8684C9.49842 39.1916 9.01284 38.6156 8.39541 38.2117C7.79525 37.7806 7.08205 37.5345 6.34373 37.5038L6.31708 37.5034Z" fill="#1B6EB8" stroke="#1B6EB8"/>
<path d="M35.2228 45.9992H33.0164C32.936 45.9992 32.858 45.9712 32.796 45.9199C32.7339 45.8687 32.6917 45.7975 32.6765 45.7185L32.195 43.2095C31.0725 42.9769 30.0045 42.5328 29.0481 41.901L26.9323 43.34C26.8657 43.3853 26.7852 43.4059 26.705 43.3983C26.6247 43.3906 26.5497 43.3552 26.4927 43.2981L24.9333 41.7328C24.8765 41.6758 24.8413 41.6009 24.8338 41.5207C24.8263 41.4406 24.8469 41.3604 24.8921 41.2939L26.3255 39.1823C25.6945 38.2248 25.2518 37.1557 25.0212 36.0323L22.5143 35.5563C22.4352 35.5413 22.3638 35.4991 22.3124 35.437C22.2611 35.375 22.2329 35.2969 22.2329 35.2164V33.0079C22.2329 32.9273 22.2609 32.8492 22.3123 32.7871C22.3637 32.7249 22.4351 32.6827 22.5143 32.6676L25.0212 32.192C25.2517 31.0686 25.6944 29.9995 26.3255 29.042L24.8921 26.9304C24.847 26.8639 24.8264 26.7838 24.8339 26.7037C24.8414 26.6237 24.8766 26.5488 24.9333 26.4918L26.4927 24.9265C26.5495 24.8693 26.6245 24.8337 26.7048 24.8258C26.7851 24.818 26.8655 24.8384 26.9323 24.8836L29.0481 26.3222C30.0045 25.6904 31.0725 25.2463 32.195 25.0137L32.6765 22.5051C32.6916 22.4261 32.7338 22.3547 32.7959 22.3034C32.8579 22.2521 32.9359 22.2241 33.0164 22.2241H35.2228C35.3035 22.224 35.3816 22.2522 35.4438 22.3036C35.5059 22.355 35.5481 22.4266 35.5631 22.5058L36.0391 25.0127C37.1625 25.2433 38.2316 25.6861 39.1891 26.3174L41.3007 24.8836C41.3673 24.8384 41.4476 24.8178 41.5278 24.8255C41.608 24.8331 41.683 24.8685 41.7399 24.9255L43.2997 26.4908C43.3564 26.5477 43.3916 26.6227 43.3991 26.7027C43.4066 26.7827 43.386 26.8629 43.3409 26.9294L41.9078 29.0409C42.5425 29.9979 42.9872 31.0681 43.2177 32.1931L45.7187 32.6687C45.7979 32.6837 45.8693 32.726 45.9207 32.7881C45.9721 32.8502 46.0001 32.9283 46.0001 33.0089V35.2157C46.0001 35.2963 45.9719 35.3743 45.9206 35.4363C45.8692 35.4984 45.7978 35.5406 45.7187 35.5556L43.2177 36.0316C42.9872 37.1566 42.5425 38.2267 41.9078 39.1837L43.3409 41.2953C43.3861 41.3618 43.4067 41.442 43.3992 41.5221C43.3917 41.6022 43.3565 41.6772 43.2997 41.7342L41.7399 43.2995C41.683 43.3565 41.608 43.3919 41.5278 43.3995C41.4476 43.4072 41.3673 43.3866 41.3007 43.3414L39.1891 41.908C38.2315 42.5389 37.1624 42.9815 36.0391 43.2123L35.5631 45.7192C35.5477 45.7981 35.5054 45.8692 35.4433 45.9203C35.3812 45.9714 35.3032 45.9993 35.2228 45.9992ZM33.3023 45.3069H34.9362L35.4028 42.8492C35.4158 42.7802 35.4494 42.7167 35.4992 42.6673C35.549 42.6178 35.6127 42.5847 35.6818 42.5722C36.8721 42.3603 38.0022 41.8926 38.9942 41.2015C39.0517 41.1617 39.1198 41.1402 39.1897 41.1399C39.2596 41.1396 39.3279 41.1605 39.3857 41.1997L41.453 42.6037L42.6084 41.4441L41.2037 39.3755C41.1643 39.3175 41.1434 39.2488 41.1438 39.1787C41.1442 39.1085 41.166 39.0401 41.2062 38.9826C41.9012 37.993 42.3708 36.863 42.5818 35.6723C42.5941 35.6031 42.6272 35.5393 42.6767 35.4894C42.7262 35.4396 42.7897 35.4059 42.8587 35.3929L45.3085 34.928V33.2952L42.858 32.8289C42.789 32.816 42.7256 32.7824 42.6761 32.7326C42.6266 32.6827 42.5935 32.619 42.5811 32.5499C42.3702 31.359 41.9006 30.2288 41.2055 29.2389C41.1653 29.1814 41.1435 29.113 41.1431 29.0429C41.1427 28.9727 41.1636 28.9041 41.203 28.8461L42.6084 26.7771L41.453 25.6174L39.3857 27.0215C39.3281 27.061 39.2598 27.0821 39.19 27.0821C39.1201 27.0821 39.0518 27.061 38.9942 27.0215C38.0026 26.33 36.8725 25.8623 35.6822 25.651C35.613 25.6387 35.5492 25.6056 35.4993 25.5561C35.4494 25.5066 35.4158 25.4431 35.4028 25.3741L34.9362 22.9164H33.3023L32.8309 25.3741C32.8181 25.4428 32.7848 25.5061 32.7353 25.5555C32.6859 25.6049 32.6227 25.6382 32.5539 25.651C31.3653 25.8647 30.2371 26.3333 29.2468 27.0246C29.1892 27.0648 29.1208 27.0866 29.0505 27.087C28.9803 27.0875 28.9116 27.0665 28.8535 27.027L26.7804 25.6174L25.6253 26.7771L27.0313 28.8454C27.0709 28.903 27.092 28.9712 27.092 29.0411C27.092 29.111 27.0709 29.1792 27.0313 29.2369C26.3402 30.2287 25.8726 31.3587 25.6609 32.5489C25.6486 32.6181 25.6154 32.6818 25.566 32.7317C25.5165 32.7816 25.453 32.8153 25.384 32.8282L22.9263 33.2945V34.928L25.384 35.3943C25.4531 35.4073 25.5166 35.441 25.5661 35.491C25.6155 35.5409 25.6486 35.6048 25.6609 35.674C25.8726 36.864 26.3402 37.9938 27.0313 38.9854C27.0709 39.043 27.092 39.1112 27.092 39.1811C27.092 39.251 27.0709 39.3192 27.0313 39.3769L25.627 41.4455L26.7821 42.6051L28.8553 41.1952C28.9133 41.1557 28.9821 41.1349 29.0523 41.1353C29.1225 41.1358 29.191 41.1577 29.2485 41.198C30.2384 41.8898 31.3664 42.3591 32.555 42.5736C32.6235 42.5863 32.6865 42.6194 32.7359 42.6685C32.7854 42.7176 32.8188 42.7804 32.8319 42.8488L33.3023 45.3069Z" fill="#1B6EB8" stroke="#1B6EB8"/>
<path d="M34.1132 39.6853C33.0109 39.6853 31.9334 39.3584 31.0169 38.746C30.1004 38.1336 29.3861 37.2632 28.9643 36.2449C28.5425 35.2265 28.4321 34.1059 28.6471 33.0249C28.8622 31.9438 29.393 30.9507 30.1724 30.1713C30.9518 29.3919 31.9448 28.8611 33.0259 28.6461C34.107 28.431 35.2276 28.5414 36.2459 28.9632C37.2643 29.385 38.1347 30.0994 38.7471 31.0159C39.3595 31.9324 39.6863 33.0099 39.6863 34.1121C39.6852 35.5899 39.0977 37.0068 38.0528 38.0517C37.0078 39.0966 35.5909 39.6842 34.1132 39.6853ZM34.1132 29.2313C33.1478 29.2313 32.2042 29.5176 31.4015 30.0539C30.5989 30.5902 29.9733 31.3525 29.6039 32.2443C29.2345 33.1362 29.1378 34.1175 29.3261 35.0643C29.5145 36.0111 29.9793 36.8808 30.6619 37.5634C31.3445 38.246 32.2142 38.7108 33.161 38.8992C34.1078 39.0875 35.0891 38.9908 35.981 38.6214C36.8728 38.252 37.6351 37.6264 38.1714 36.8238C38.7077 36.0211 38.994 35.0775 38.994 34.1121C38.9936 32.8176 38.4793 31.5762 37.5641 30.6607C36.6489 29.7451 35.4077 29.2304 34.1132 29.2296V29.2313Z" fill="#1B6EB8" stroke="#1B6EB8"/>
</svg>
