<svg width="41" height="42" viewBox="0 0 41 42" fill="none" xmlns="http://www.w3.org/2000/svg">
<path d="M36.4802 9.70054C35.9396 9.69962 35.4047 9.59022 34.9072 9.3788C32.9694 8.55982 32.0131 6.42833 32.7723 4.62751C33.0518 3.9682 33.5346 3.41545 34.1504 3.04991C34.1956 3.02272 34.2471 3.00762 34.2998 3.00603C34.3525 3.00445 34.4048 3.01644 34.4515 3.04086C34.4983 3.06527 34.538 3.1013 34.5669 3.14548C34.5957 3.18965 34.6127 3.2405 34.6162 3.29314L34.8213 6.33258L36.176 6.90556L37.5753 5.75868L37.2413 3.16998C37.2344 3.11629 37.2418 3.06174 37.2628 3.01183C37.2837 2.96192 37.3174 2.91841 37.3605 2.88568C37.4037 2.85296 37.4546 2.83219 37.5084 2.82545C37.5621 2.81872 37.6166 2.82626 37.6665 2.84732C39.6061 3.66629 40.5621 5.79748 39.801 7.59861C39.5162 8.23718 39.049 8.77736 38.4582 9.15133C37.8674 9.52529 37.1792 9.71636 36.4802 9.70054ZM33.3397 4.86674C32.7107 6.35444 33.5214 8.12386 35.1467 8.81075C36.7721 9.49764 38.6058 8.84523 39.2345 7.35722C39.7949 6.03147 39.212 4.48188 37.9279 3.67399L38.2086 5.84828C38.2152 5.90002 38.2086 5.95259 38.1893 6.00106C38.17 6.04953 38.1388 6.09231 38.0984 6.12537L36.4232 7.49824C36.3798 7.5338 36.3276 7.55684 36.2721 7.56487C36.2166 7.5729 36.1599 7.56562 36.1082 7.5438L34.4069 6.82489C34.3544 6.80268 34.3091 6.76634 34.2761 6.71992C34.243 6.6735 34.2235 6.61881 34.2197 6.56196L34.0396 3.89074C33.7363 4.15966 33.4971 4.49304 33.3394 4.86643L33.3397 4.86674Z" fill="#1B6EB8" stroke="#1B6EB8"/>
<path d="M31.7233 24.7007C31.6536 24.7008 31.586 24.6772 31.5315 24.6338C31.477 24.5905 31.4388 24.53 31.4231 24.4621L30.8046 21.7887L29.2036 21.0966L28.0952 22.1933L28.3926 24.3285C28.4007 24.3859 28.3924 24.4445 28.3687 24.4974C28.345 24.5503 28.3068 24.5955 28.2585 24.6277C28.2102 24.6598 28.1539 24.6777 28.0959 24.6793C28.0379 24.6808 27.9807 24.6659 27.9308 24.6364C26.2827 23.6591 25.5511 21.7115 26.2288 20.1104C26.4153 19.674 26.6912 19.2814 27.0386 18.9579C27.3861 18.6344 27.7974 18.3873 28.246 18.2323C29.1847 17.9092 30.2097 17.9443 31.1241 18.3307C32.0385 18.7171 32.778 19.4277 33.2005 20.326C33.4019 20.7558 33.5111 21.2231 33.5211 21.6976C33.531 22.1722 33.4416 22.6436 33.2584 23.0815C32.9788 23.7407 32.496 24.2934 31.8803 24.6591C31.8326 24.6868 31.7784 24.7012 31.7233 24.7007ZM29.1355 20.4236C29.1779 20.4233 29.2198 20.4319 29.2587 20.4488L31.1928 21.285C31.237 21.3042 31.2761 21.3334 31.307 21.3704C31.3378 21.4074 31.3596 21.4512 31.3705 21.4981L31.921 23.8771C32.2581 23.5982 32.5231 23.2422 32.6938 22.8392C32.8434 22.4795 32.9161 22.0924 32.9072 21.7029C32.8984 21.3134 32.8081 20.9301 32.6423 20.5775C32.2836 19.8202 31.6587 19.2214 30.8868 18.8953C30.1149 18.5691 29.25 18.5384 28.4569 18.809C28.0884 18.9356 27.7504 19.138 27.4648 19.4031C27.1792 19.6683 26.9523 19.9903 26.7987 20.3484C26.5807 20.9289 26.5488 21.5629 26.7074 22.1623C26.866 22.7617 27.2073 23.2969 27.6838 23.6936L27.4656 22.1253C27.459 22.0779 27.4635 22.0296 27.4789 21.9843C27.4942 21.9389 27.5199 21.8978 27.5539 21.8642L28.9188 20.5125C28.9766 20.4557 29.0544 20.4237 29.1355 20.4236Z" fill="#1B6EB8" stroke="#1B6EB8"/>
<path d="M29.3748 18.6261C29.324 18.6261 29.2739 18.6136 29.2291 18.5895C29.1843 18.5655 29.1462 18.5307 29.1181 18.4883C29.09 18.4459 29.0729 18.3972 29.0682 18.3466C29.0635 18.296 29.0714 18.245 29.0913 18.1982L33.3952 8.0124C33.4271 7.9372 33.4875 7.87772 33.5632 7.84706C33.6389 7.8164 33.7236 7.81707 33.7988 7.84891C33.874 7.88076 33.9335 7.94118 33.9642 8.01687C33.9948 8.09257 33.9942 8.17735 33.9623 8.25255L29.6587 18.4383C29.6351 18.4941 29.5956 18.5416 29.5451 18.575C29.4946 18.6084 29.4354 18.6262 29.3748 18.6261Z" fill="#1B6EB8" stroke="#1B6EB8"/>
<path d="M32.1559 19.6745C32.1148 19.6745 32.0742 19.6663 32.0364 19.6502C31.9992 19.6345 31.9654 19.6116 31.937 19.5828C31.9086 19.554 31.8861 19.5199 31.8708 19.4825C31.8556 19.445 31.8479 19.4049 31.8482 19.3645C31.8484 19.3241 31.8566 19.2841 31.8723 19.2468L36.0876 9.27135C36.1034 9.23409 36.1263 9.2003 36.1551 9.17191C36.184 9.14353 36.2181 9.12109 36.2556 9.1059C36.2931 9.0907 36.3332 9.08304 36.3737 9.08335C36.4141 9.08366 36.4541 9.09194 36.4914 9.10771C36.5286 9.12348 36.5624 9.14643 36.5908 9.17525C36.6192 9.20408 36.6416 9.23822 36.6568 9.27571C36.672 9.31321 36.6797 9.35333 36.6794 9.39378C36.6791 9.43424 36.6708 9.47424 36.655 9.5115L32.4398 19.487C32.4161 19.5427 32.3766 19.5902 32.3261 19.6235C32.2756 19.6569 32.2164 19.6746 32.1559 19.6745Z" fill="#1B6EB8" stroke="#1B6EB8"/>
<path d="M26.3747 11.538H8.46804C8.38639 11.538 8.30807 11.5056 8.25033 11.4478C8.19259 11.3901 8.16016 11.3118 8.16016 11.2301C8.16016 11.1485 8.19259 11.0701 8.25033 11.0124C8.30807 10.9547 8.38639 10.9222 8.46804 10.9222H26.3747C26.4563 10.9222 26.5346 10.9547 26.5924 11.0124C26.6501 11.0701 26.6825 11.1485 26.6825 11.2301C26.6825 11.3118 26.6501 11.3901 26.5924 11.4478C26.5346 11.5056 26.4563 11.538 26.3747 11.538Z" fill="#1B6EB8" stroke="#1B6EB8"/>
<path d="M24.8542 11.538C24.8354 11.5381 24.8166 11.5363 24.7982 11.5328C24.718 11.5178 24.6471 11.4717 24.6009 11.4045C24.5548 11.3373 24.5371 11.2546 24.5519 11.1744C24.62 10.7932 24.6532 10.4065 24.651 10.0192C24.651 6.12169 21.4081 2.95078 17.4222 2.95078C13.4363 2.95078 10.193 6.122 10.193 10.0192C10.1908 10.4065 10.2241 10.7932 10.2925 11.1744C10.3003 11.2144 10.3001 11.2555 10.292 11.2954C10.2838 11.3354 10.2678 11.3733 10.2448 11.4069C10.2219 11.4406 10.1925 11.4694 10.1584 11.4916C10.1242 11.5139 10.086 11.5291 10.0459 11.5365C10.0058 11.5438 9.9647 11.5432 9.92488 11.5345C9.88506 11.5258 9.84736 11.5094 9.81397 11.486C9.78057 11.4627 9.75213 11.4329 9.73031 11.3985C9.70849 11.3641 9.69372 11.3257 9.68685 11.2855C9.61168 10.8677 9.57499 10.4438 9.57725 10.0192C9.57725 5.78209 13.0967 2.33501 17.4222 2.33501C21.7476 2.33501 25.2668 5.78332 25.2668 10.0192C25.2692 10.4438 25.2325 10.8677 25.1572 11.2855C25.1442 11.3564 25.1068 11.4205 25.0514 11.4666C24.9961 11.5128 24.9263 11.538 24.8542 11.538Z" fill="#1B6EB8" stroke="#1B6EB8"/>
<path d="M17.4221 7.24422C17.3405 7.24422 17.2622 7.21179 17.2044 7.15405C17.1467 7.09631 17.1143 7.01799 17.1143 6.93634V1.30789C17.1143 1.22623 17.1467 1.14792 17.2044 1.09018C17.2622 1.03244 17.3405 1 17.4221 1C17.5038 1 17.5821 1.03244 17.6399 1.09018C17.6976 1.14792 17.73 1.22623 17.73 1.30789V6.93634C17.73 7.01799 17.6976 7.09631 17.6399 7.15405C17.5821 7.21179 17.5038 7.24422 17.4221 7.24422Z" fill="#1B6EB8" stroke="#1B6EB8"/>
<path d="M17.422 22.6767C17.1283 22.6767 16.8359 22.6382 16.5523 22.5621C12.2252 21.403 11.7462 18.0836 11.7027 17.0642C11.3345 17.006 10.9921 16.839 10.7194 16.5848C10.4467 16.3306 10.2562 16.0007 10.1722 15.6375L9.84497 14.2425C9.804 14.0678 9.80237 13.8862 9.8402 13.7108C9.87802 13.5354 9.95435 13.3707 10.0637 13.2284C10.173 13.0862 10.3126 12.97 10.4723 12.8883C10.632 12.8066 10.8079 12.7614 10.9872 12.756L10.7061 11.2877C10.6985 11.248 10.6989 11.2071 10.7071 11.1675C10.7153 11.1279 10.7312 11.0903 10.7539 11.0569C10.7766 11.0234 10.8057 10.9948 10.8395 10.9726C10.8733 10.9504 10.9112 10.935 10.9509 10.9275C10.9906 10.9199 11.0314 10.9202 11.071 10.9284C11.1106 10.9366 11.1482 10.9525 11.1817 10.9752C11.2151 10.998 11.2438 11.0271 11.266 11.0609C11.2882 11.0947 11.3035 11.1325 11.3111 11.1722L11.6618 13.0054C11.6703 13.0499 11.6689 13.0958 11.6577 13.1397C11.6464 13.1836 11.6256 13.2245 11.5967 13.2594C11.5678 13.2944 11.5316 13.3225 11.4906 13.3418C11.4496 13.3611 11.4048 13.3711 11.3595 13.3711H11.0236C10.9339 13.3711 10.8453 13.3913 10.7646 13.4303C10.6838 13.4693 10.613 13.5261 10.5573 13.5964C10.5015 13.6666 10.4625 13.7486 10.4429 13.8361C10.4234 13.9237 10.4239 14.0145 10.4444 14.1018L10.7717 15.4968C10.8361 15.7748 10.993 16.0227 11.2168 16.1999C11.4406 16.377 11.7178 16.4729 12.0032 16.4719C12.0889 16.4724 12.1709 16.507 12.2311 16.5679C12.26 16.5984 12.2825 16.6343 12.2974 16.6736C12.3123 16.7129 12.3193 16.7547 12.3179 16.7967C12.3093 16.962 12.16 20.7478 16.7124 21.9692C17.1778 22.0932 17.6675 22.0932 18.1329 21.9692C22.685 20.7493 22.5357 16.9636 22.5274 16.8028C22.5253 16.7601 22.5319 16.7173 22.5468 16.6772C22.5617 16.6371 22.5847 16.6004 22.6142 16.5695C22.644 16.5393 22.6795 16.5152 22.7186 16.4987C22.7577 16.4823 22.7996 16.4736 22.842 16.4734C23.1275 16.4746 23.4048 16.3787 23.6286 16.2016C23.8524 16.0244 24.0093 15.7764 24.0736 15.4983L24.4009 14.1033C24.4214 14.016 24.4219 13.9252 24.4024 13.8377C24.3829 13.7502 24.3438 13.6683 24.2881 13.598C24.2325 13.5278 24.1616 13.471 24.0809 13.432C24.0002 13.3929 23.9117 13.3727 23.822 13.3727H23.4849C23.4395 13.3727 23.3947 13.3627 23.3537 13.3434C23.3126 13.3242 23.2764 13.296 23.2474 13.2611C23.2185 13.2261 23.1977 13.1852 23.1864 13.1413C23.1751 13.0974 23.1737 13.0515 23.1823 13.0069L23.5332 11.1738C23.54 11.1333 23.5548 11.0946 23.5767 11.0599C23.5987 11.0253 23.6273 10.9954 23.661 10.9719C23.6947 10.9485 23.7327 10.932 23.7728 10.9235C23.8129 10.9149 23.8544 10.9145 23.8946 10.9222C23.9349 10.9299 23.9733 10.9455 24.0074 10.9683C24.0416 10.991 24.0709 11.0203 24.0935 11.0545C24.1162 11.0887 24.1318 11.1271 24.1394 11.1674C24.147 11.2077 24.1465 11.2491 24.1379 11.2892L23.8568 12.756C24.0359 12.7617 24.2115 12.8072 24.3709 12.889C24.5303 12.9709 24.6696 13.0871 24.7786 13.2294C24.8876 13.3716 24.9636 13.5362 25.0012 13.7115C25.0388 13.8867 25.037 14.068 24.996 14.2425L24.6687 15.6375C24.5848 16.0007 24.3943 16.3305 24.1216 16.5847C23.849 16.8389 23.5067 17.0059 23.1385 17.0642C23.096 18.0772 22.6204 21.4017 18.2893 22.5621C18.0065 22.638 17.7149 22.6765 17.422 22.6767Z" fill="#1B6EB8" stroke="#1B6EB8"/>
<path d="M33.3871 40.9959H2.47508C2.08409 40.9951 1.70932 40.8395 1.43285 40.563C1.15638 40.2865 1.00073 39.9118 1 39.5208V32.4394C1.00106 31.5905 1.22662 30.7569 1.65378 30.0233C2.08094 29.2896 2.69452 28.682 3.43229 28.262C5.15645 27.2885 8.03734 25.9544 10.1408 24.9803C11.111 24.5311 11.9487 24.1431 12.4213 23.9067C12.5271 23.8536 12.6427 23.8232 12.7609 23.8173C12.8791 23.8115 12.9971 23.8304 13.1076 23.8728C13.2236 23.9183 13.329 23.9872 13.4172 24.0753C13.5054 24.1633 13.5745 24.2686 13.6202 24.3845C14.1301 25.6709 15.8028 27.0015 17.7194 27.0015C19.7142 27.0015 21.3287 25.6539 21.8352 24.3845C21.8798 24.2688 21.948 24.1636 22.0354 24.0756C22.1229 23.9877 22.2277 23.9189 22.3432 23.8737C22.4536 23.8305 22.5718 23.8111 22.6902 23.8168C22.8086 23.8225 22.9244 23.8531 23.0301 23.9067C23.1982 23.9904 23.8457 24.2823 24.7423 24.6862C26.5662 25.508 29.3227 26.7491 31.452 27.7719C32.4714 28.2655 33.3316 29.0356 33.9347 29.9943C34.5377 30.953 34.8594 32.0618 34.8631 33.1944V39.5214C34.8622 39.9124 34.7063 40.2872 34.4297 40.5636C34.153 40.8399 33.7781 40.9954 33.3871 40.9959ZM12.8037 24.4301C12.7662 24.4305 12.7292 24.4394 12.6956 24.4563C12.2163 24.6961 11.3745 25.0859 10.3997 25.5372C8.30612 26.5071 5.43786 27.835 3.73618 28.7959C3.09322 29.1622 2.55855 29.6919 2.18638 30.3315C1.81421 30.971 1.61778 31.6976 1.617 32.4376V39.5189C1.61717 39.7468 1.70775 39.9653 1.86887 40.1264C2.02998 40.2875 2.24846 40.3781 2.47631 40.3782H33.388C33.6158 40.378 33.8343 40.2874 33.9954 40.1263C34.1565 39.9652 34.2471 39.7468 34.2473 39.5189V33.1919C34.2437 32.1754 33.9547 31.1804 33.4132 30.3202C32.8716 29.46 32.0994 28.7691 31.1845 28.3264C29.0619 27.3073 26.3094 26.0674 24.4883 25.2475C23.552 24.8257 22.9331 24.5471 22.754 24.4578C22.7249 24.4427 22.6929 24.4341 22.6602 24.4324C22.6275 24.4307 22.5948 24.436 22.5643 24.4479C22.5283 24.4625 22.4957 24.4845 22.4686 24.5124C22.4415 24.5402 22.4205 24.5735 22.407 24.6099C21.8244 26.069 19.9839 27.6161 17.7182 27.6161C15.4577 27.6161 13.6233 26.0687 13.0466 24.612C13.0326 24.5751 13.0111 24.5414 12.9834 24.5131C12.9558 24.4848 12.9226 24.4625 12.8859 24.4476C12.8598 24.437 12.8319 24.431 12.8037 24.4301Z" fill="#1B6EB8" stroke="#1B6EB8"/>
<path d="M22.1183 24.8048C22.0588 24.8047 22.0005 24.7874 21.9505 24.7549C21.6705 24.573 21.4347 24.3309 21.2603 24.0462C21.0859 23.7614 20.9773 23.4413 20.9425 23.1093L20.7048 20.8756C20.6962 20.7943 20.7202 20.713 20.7716 20.6494C20.823 20.5859 20.8975 20.5453 20.9787 20.5367C21.06 20.5281 21.1413 20.5521 21.2048 20.6035C21.2684 20.6548 21.3089 20.7293 21.3175 20.8106L21.5552 23.0443C21.5804 23.2854 21.6592 23.5178 21.7859 23.7245C21.9125 23.9312 22.0837 24.1069 22.2871 24.2389C22.3427 24.2751 22.3852 24.3284 22.4081 24.3908C22.431 24.4531 22.4331 24.5212 22.4141 24.5849C22.3951 24.6485 22.3561 24.7043 22.3028 24.744C22.2495 24.7836 22.1848 24.8049 22.1183 24.8048Z" fill="#1B6EB8" stroke="#1B6EB8"/>
<path d="M13.5167 24.7463L13.332 24.4972L13.1743 24.2327L13.1996 24.2176C13.3979 24.0986 13.5687 23.9387 13.7005 23.7486C13.8324 23.5585 13.9223 23.3426 13.9643 23.1151L14.2907 21.35C14.298 21.3102 14.3131 21.2723 14.3351 21.2384C14.3571 21.2044 14.3856 21.1752 14.4189 21.1523C14.4522 21.1293 14.4897 21.1132 14.5293 21.1047C14.5688 21.0963 14.6096 21.0957 14.6494 21.1031C14.6892 21.1104 14.7271 21.1255 14.761 21.1475C14.7949 21.1695 14.8242 21.198 14.8471 21.2313C14.8701 21.2646 14.8862 21.3021 14.8947 21.3416C14.9031 21.3812 14.9037 21.422 14.8963 21.4618L14.57 23.2269C14.5122 23.5403 14.3884 23.8379 14.2068 24.0999C14.0252 24.3618 13.79 24.5822 13.5167 24.7463Z" fill="#1B6EB8" stroke="#1B6EB8"/>
<path d="M19.415 41.0251H16.3386C16.257 41.0251 16.1787 40.9927 16.1209 40.9349C16.0632 40.8772 16.0308 40.7989 16.0308 40.7172V27.0951C16.0308 27.0135 16.0632 26.9352 16.1209 26.8774C16.1787 26.8197 16.257 26.7872 16.3386 26.7872C16.4203 26.7872 16.4986 26.8197 16.5564 26.8774C16.6141 26.9352 16.6465 27.0135 16.6465 27.0951V40.4093H19.1072V26.9855C19.1072 26.9039 19.1396 26.8256 19.1973 26.7678C19.2551 26.7101 19.3334 26.6776 19.415 26.6776C19.4967 26.6776 19.575 26.7101 19.6327 26.7678C19.6905 26.8256 19.7229 26.9039 19.7229 26.9855V40.6864C19.7244 40.7715 19.6933 40.8538 19.6361 40.9168C19.5789 40.9797 19.4998 41.0185 19.415 41.0251Z" fill="#1B6EB8" stroke="#1B6EB8"/>
<path d="M36.4802 9.70054C35.9396 9.69962 35.4047 9.59022 34.9072 9.3788C32.9694 8.55982 32.0131 6.42833 32.7723 4.62751C33.0518 3.9682 33.5346 3.41545 34.1504 3.04991C34.1956 3.02272 34.2471 3.00762 34.2998 3.00603C34.3525 3.00445 34.4048 3.01644 34.4515 3.04086C34.4983 3.06527 34.538 3.1013 34.5669 3.14548C34.5957 3.18965 34.6127 3.2405 34.6162 3.29314L34.8213 6.33258L36.176 6.90556L37.5753 5.75868L37.2413 3.16998C37.2344 3.11629 37.2418 3.06174 37.2628 3.01183C37.2837 2.96192 37.3174 2.91841 37.3605 2.88568C37.4037 2.85296 37.4546 2.83219 37.5084 2.82545C37.5621 2.81872 37.6166 2.82626 37.6665 2.84732C39.6061 3.66629 40.5621 5.79748 39.801 7.59861C39.5162 8.23718 39.049 8.77736 38.4582 9.15133C37.8674 9.52529 37.1792 9.71636 36.4802 9.70054ZM33.3397 4.86674C32.7107 6.35444 33.5214 8.12386 35.1467 8.81075C36.7721 9.49764 38.6058 8.84523 39.2345 7.35722C39.7949 6.03147 39.212 4.48188 37.9279 3.67399L38.2086 5.84828C38.2152 5.90002 38.2086 5.95259 38.1893 6.00106C38.17 6.04953 38.1388 6.09231 38.0984 6.12537L36.4232 7.49824C36.3798 7.5338 36.3276 7.55684 36.2721 7.56487C36.2166 7.5729 36.1599 7.56562 36.1082 7.5438L34.4069 6.82489C34.3544 6.80268 34.3091 6.76634 34.2761 6.71992C34.243 6.6735 34.2235 6.61881 34.2197 6.56196L34.0396 3.89074C33.7363 4.15966 33.4971 4.49304 33.3394 4.86643L33.3397 4.86674Z" fill="#1B6EB8" stroke="#1B6EB8"/>
<path d="M31.7233 24.7007C31.6536 24.7008 31.586 24.6772 31.5315 24.6338C31.477 24.5905 31.4388 24.53 31.4231 24.4621L30.8046 21.7887L29.2036 21.0966L28.0952 22.1933L28.3926 24.3285C28.4007 24.3859 28.3924 24.4445 28.3687 24.4974C28.345 24.5503 28.3068 24.5955 28.2585 24.6277C28.2102 24.6598 28.1539 24.6777 28.0959 24.6793C28.0379 24.6808 27.9807 24.6659 27.9308 24.6364C26.2827 23.6591 25.5511 21.7115 26.2288 20.1104C26.4153 19.674 26.6912 19.2814 27.0386 18.9579C27.3861 18.6344 27.7974 18.3873 28.246 18.2323C29.1847 17.9092 30.2097 17.9443 31.1241 18.3307C32.0385 18.7171 32.778 19.4277 33.2005 20.326C33.4019 20.7558 33.5111 21.2231 33.5211 21.6976C33.531 22.1722 33.4416 22.6436 33.2584 23.0815C32.9788 23.7407 32.496 24.2934 31.8803 24.6591C31.8326 24.6868 31.7784 24.7012 31.7233 24.7007ZM29.1355 20.4236C29.1779 20.4233 29.2198 20.4319 29.2587 20.4488L31.1928 21.285C31.237 21.3042 31.2761 21.3334 31.307 21.3704C31.3378 21.4074 31.3596 21.4512 31.3705 21.4981L31.921 23.8771C32.2581 23.5982 32.5231 23.2422 32.6938 22.8392C32.8434 22.4795 32.9161 22.0924 32.9072 21.7029C32.8984 21.3134 32.8081 20.9301 32.6423 20.5775C32.2836 19.8202 31.6587 19.2214 30.8868 18.8953C30.1149 18.5691 29.25 18.5384 28.4569 18.809C28.0884 18.9356 27.7504 19.138 27.4648 19.4031C27.1792 19.6683 26.9523 19.9903 26.7987 20.3484C26.5807 20.9289 26.5488 21.5629 26.7074 22.1623C26.866 22.7617 27.2073 23.2969 27.6838 23.6936L27.4656 22.1253C27.459 22.0779 27.4635 22.0296 27.4789 21.9843C27.4942 21.9389 27.5199 21.8978 27.5539 21.8642L28.9188 20.5125C28.9766 20.4557 29.0544 20.4237 29.1355 20.4236Z" fill="#1B6EB8" stroke="#1B6EB8"/>
<path d="M29.3748 18.6261C29.324 18.6261 29.2739 18.6136 29.2291 18.5895C29.1843 18.5655 29.1462 18.5307 29.1181 18.4883C29.09 18.4459 29.0729 18.3972 29.0682 18.3466C29.0635 18.296 29.0714 18.245 29.0913 18.1982L33.3952 8.0124C33.4271 7.9372 33.4875 7.87772 33.5632 7.84706C33.6389 7.8164 33.7236 7.81707 33.7988 7.84891C33.874 7.88076 33.9335 7.94118 33.9642 8.01687C33.9948 8.09257 33.9942 8.17735 33.9623 8.25255L29.6587 18.4383C29.6351 18.4941 29.5956 18.5416 29.5451 18.575C29.4946 18.6084 29.4354 18.6262 29.3748 18.6261Z" fill="#1B6EB8" stroke="#1B6EB8"/>
<path d="M32.1559 19.6745C32.1148 19.6745 32.0742 19.6663 32.0364 19.6502C31.9992 19.6345 31.9654 19.6116 31.937 19.5828C31.9086 19.554 31.8861 19.5199 31.8708 19.4825C31.8556 19.445 31.8479 19.4049 31.8482 19.3645C31.8484 19.3241 31.8566 19.2841 31.8723 19.2468L36.0876 9.27135C36.1034 9.23409 36.1263 9.2003 36.1551 9.17191C36.184 9.14353 36.2181 9.12109 36.2556 9.1059C36.2931 9.0907 36.3332 9.08304 36.3737 9.08335C36.4141 9.08366 36.4541 9.09194 36.4914 9.10771C36.5286 9.12348 36.5624 9.14643 36.5908 9.17525C36.6192 9.20408 36.6416 9.23822 36.6568 9.27571C36.672 9.31321 36.6797 9.35333 36.6794 9.39378C36.6791 9.43424 36.6708 9.47424 36.655 9.5115L32.4398 19.487C32.4161 19.5427 32.3766 19.5902 32.3261 19.6235C32.2756 19.6569 32.2164 19.6746 32.1559 19.6745Z" fill="#1B6EB8" stroke="#1B6EB8"/>
<path d="M26.3747 11.538H8.46804C8.38639 11.538 8.30807 11.5056 8.25033 11.4478C8.19259 11.3901 8.16016 11.3118 8.16016 11.2301C8.16016 11.1485 8.19259 11.0701 8.25033 11.0124C8.30807 10.9547 8.38639 10.9222 8.46804 10.9222H26.3747C26.4563 10.9222 26.5346 10.9547 26.5924 11.0124C26.6501 11.0701 26.6825 11.1485 26.6825 11.2301C26.6825 11.3118 26.6501 11.3901 26.5924 11.4478C26.5346 11.5056 26.4563 11.538 26.3747 11.538Z" fill="#1B6EB8" stroke="#1B6EB8"/>
<path d="M24.8542 11.538C24.8354 11.5381 24.8166 11.5363 24.7982 11.5328C24.718 11.5178 24.6471 11.4717 24.6009 11.4045C24.5548 11.3373 24.5371 11.2546 24.5519 11.1744C24.62 10.7932 24.6532 10.4065 24.651 10.0192C24.651 6.12169 21.4081 2.95078 17.4222 2.95078C13.4363 2.95078 10.193 6.122 10.193 10.0192C10.1908 10.4065 10.2241 10.7932 10.2925 11.1744C10.3003 11.2144 10.3001 11.2555 10.292 11.2954C10.2838 11.3354 10.2678 11.3733 10.2448 11.4069C10.2219 11.4406 10.1925 11.4694 10.1584 11.4916C10.1242 11.5139 10.086 11.5291 10.0459 11.5365C10.0058 11.5438 9.9647 11.5432 9.92488 11.5345C9.88506 11.5258 9.84736 11.5094 9.81397 11.486C9.78057 11.4627 9.75213 11.4329 9.73031 11.3985C9.70849 11.3641 9.69372 11.3257 9.68685 11.2855C9.61168 10.8677 9.57499 10.4438 9.57725 10.0192C9.57725 5.78209 13.0967 2.33501 17.4222 2.33501C21.7476 2.33501 25.2668 5.78332 25.2668 10.0192C25.2692 10.4438 25.2325 10.8677 25.1572 11.2855C25.1442 11.3564 25.1068 11.4205 25.0514 11.4666C24.9961 11.5128 24.9263 11.538 24.8542 11.538Z" fill="#1B6EB8" stroke="#1B6EB8"/>
<path d="M17.4221 7.24422C17.3405 7.24422 17.2622 7.21179 17.2044 7.15405C17.1467 7.09631 17.1143 7.01799 17.1143 6.93634V1.30789C17.1143 1.22623 17.1467 1.14792 17.2044 1.09018C17.2622 1.03244 17.3405 1 17.4221 1C17.5038 1 17.5821 1.03244 17.6399 1.09018C17.6976 1.14792 17.73 1.22623 17.73 1.30789V6.93634C17.73 7.01799 17.6976 7.09631 17.6399 7.15405C17.5821 7.21179 17.5038 7.24422 17.4221 7.24422Z" fill="#1B6EB8" stroke="#1B6EB8"/>
<path d="M17.422 22.6767C17.1283 22.6767 16.8359 22.6382 16.5523 22.5621C12.2252 21.403 11.7462 18.0836 11.7027 17.0642C11.3345 17.006 10.9921 16.839 10.7194 16.5848C10.4467 16.3306 10.2562 16.0007 10.1722 15.6375L9.84497 14.2425C9.804 14.0678 9.80237 13.8862 9.8402 13.7108C9.87802 13.5354 9.95435 13.3707 10.0637 13.2284C10.173 13.0862 10.3126 12.97 10.4723 12.8883C10.632 12.8066 10.8079 12.7614 10.9872 12.756L10.7061 11.2877C10.6985 11.248 10.6989 11.2071 10.7071 11.1675C10.7153 11.1279 10.7312 11.0903 10.7539 11.0569C10.7766 11.0234 10.8057 10.9948 10.8395 10.9726C10.8733 10.9504 10.9112 10.935 10.9509 10.9275C10.9906 10.9199 11.0314 10.9202 11.071 10.9284C11.1106 10.9366 11.1482 10.9525 11.1817 10.9752C11.2151 10.998 11.2438 11.0271 11.266 11.0609C11.2882 11.0947 11.3035 11.1325 11.3111 11.1722L11.6618 13.0054C11.6703 13.0499 11.6689 13.0958 11.6577 13.1397C11.6464 13.1836 11.6256 13.2245 11.5967 13.2594C11.5678 13.2944 11.5316 13.3225 11.4906 13.3418C11.4496 13.3611 11.4048 13.3711 11.3595 13.3711H11.0236C10.9339 13.3711 10.8453 13.3913 10.7646 13.4303C10.6838 13.4693 10.613 13.5261 10.5573 13.5964C10.5015 13.6666 10.4625 13.7486 10.4429 13.8361C10.4234 13.9237 10.4239 14.0145 10.4444 14.1018L10.7717 15.4968C10.8361 15.7748 10.993 16.0227 11.2168 16.1999C11.4406 16.377 11.7178 16.4729 12.0032 16.4719C12.0889 16.4724 12.1709 16.507 12.2311 16.5679C12.26 16.5984 12.2825 16.6343 12.2974 16.6736C12.3123 16.7129 12.3193 16.7547 12.3179 16.7967C12.3093 16.962 12.16 20.7478 16.7124 21.9692C17.1778 22.0932 17.6675 22.0932 18.1329 21.9692C22.685 20.7493 22.5357 16.9636 22.5274 16.8028C22.5253 16.7601 22.5319 16.7173 22.5468 16.6772C22.5617 16.6371 22.5847 16.6004 22.6142 16.5695C22.644 16.5393 22.6795 16.5152 22.7186 16.4987C22.7577 16.4823 22.7996 16.4736 22.842 16.4734C23.1275 16.4746 23.4048 16.3787 23.6286 16.2016C23.8524 16.0244 24.0093 15.7764 24.0736 15.4983L24.4009 14.1033C24.4214 14.016 24.4219 13.9252 24.4024 13.8377C24.3829 13.7502 24.3438 13.6683 24.2881 13.598C24.2325 13.5278 24.1616 13.471 24.0809 13.432C24.0002 13.3929 23.9117 13.3727 23.822 13.3727H23.4849C23.4395 13.3727 23.3947 13.3627 23.3537 13.3434C23.3126 13.3242 23.2764 13.296 23.2474 13.2611C23.2185 13.2261 23.1977 13.1852 23.1864 13.1413C23.1751 13.0974 23.1737 13.0515 23.1823 13.0069L23.5332 11.1738C23.54 11.1333 23.5548 11.0946 23.5767 11.0599C23.5987 11.0253 23.6273 10.9954 23.661 10.9719C23.6947 10.9485 23.7327 10.932 23.7728 10.9235C23.8129 10.9149 23.8544 10.9145 23.8946 10.9222C23.9349 10.9299 23.9733 10.9455 24.0074 10.9683C24.0416 10.991 24.0709 11.0203 24.0935 11.0545C24.1162 11.0887 24.1318 11.1271 24.1394 11.1674C24.147 11.2077 24.1465 11.2491 24.1379 11.2892L23.8568 12.756C24.0359 12.7617 24.2115 12.8072 24.3709 12.889C24.5303 12.9709 24.6696 13.0871 24.7786 13.2294C24.8876 13.3716 24.9636 13.5362 25.0012 13.7115C25.0388 13.8867 25.037 14.068 24.996 14.2425L24.6687 15.6375C24.5848 16.0007 24.3943 16.3305 24.1216 16.5847C23.849 16.8389 23.5067 17.0059 23.1385 17.0642C23.096 18.0772 22.6204 21.4017 18.2893 22.5621C18.0065 22.638 17.7149 22.6765 17.422 22.6767Z" fill="#1B6EB8" stroke="#1B6EB8"/>
<path d="M33.3871 40.9959H2.47508C2.08409 40.9951 1.70932 40.8395 1.43285 40.563C1.15638 40.2865 1.00073 39.9118 1 39.5208V32.4394C1.00106 31.5905 1.22662 30.7569 1.65378 30.0233C2.08094 29.2896 2.69452 28.682 3.43229 28.262C5.15645 27.2885 8.03734 25.9544 10.1408 24.9803C11.111 24.5311 11.9487 24.1431 12.4213 23.9067C12.5271 23.8536 12.6427 23.8232 12.7609 23.8173C12.8791 23.8115 12.9971 23.8304 13.1076 23.8728C13.2236 23.9183 13.329 23.9872 13.4172 24.0753C13.5054 24.1633 13.5745 24.2686 13.6202 24.3845C14.1301 25.6709 15.8028 27.0015 17.7194 27.0015C19.7142 27.0015 21.3287 25.6539 21.8352 24.3845C21.8798 24.2688 21.948 24.1636 22.0354 24.0756C22.1229 23.9877 22.2277 23.9189 22.3432 23.8737C22.4536 23.8305 22.5718 23.8111 22.6902 23.8168C22.8086 23.8225 22.9244 23.8531 23.0301 23.9067C23.1982 23.9904 23.8457 24.2823 24.7423 24.6862C26.5662 25.508 29.3227 26.7491 31.452 27.7719C32.4714 28.2655 33.3316 29.0356 33.9347 29.9943C34.5377 30.953 34.8594 32.0618 34.8631 33.1944V39.5214C34.8622 39.9124 34.7063 40.2872 34.4297 40.5636C34.153 40.8399 33.7781 40.9954 33.3871 40.9959ZM12.8037 24.4301C12.7662 24.4305 12.7292 24.4394 12.6956 24.4563C12.2163 24.6961 11.3745 25.0859 10.3997 25.5372C8.30612 26.5071 5.43786 27.835 3.73618 28.7959C3.09322 29.1622 2.55855 29.6919 2.18638 30.3315C1.81421 30.971 1.61778 31.6976 1.617 32.4376V39.5189C1.61717 39.7468 1.70775 39.9653 1.86887 40.1264C2.02998 40.2875 2.24846 40.3781 2.47631 40.3782H33.388C33.6158 40.378 33.8343 40.2874 33.9954 40.1263C34.1565 39.9652 34.2471 39.7468 34.2473 39.5189V33.1919C34.2437 32.1754 33.9547 31.1804 33.4132 30.3202C32.8716 29.46 32.0994 28.7691 31.1845 28.3264C29.0619 27.3073 26.3094 26.0674 24.4883 25.2475C23.552 24.8257 22.9331 24.5471 22.754 24.4578C22.7249 24.4427 22.6929 24.4341 22.6602 24.4324C22.6275 24.4307 22.5948 24.436 22.5643 24.4479C22.5283 24.4625 22.4957 24.4845 22.4686 24.5124C22.4415 24.5402 22.4205 24.5735 22.407 24.6099C21.8244 26.069 19.9839 27.6161 17.7182 27.6161C15.4577 27.6161 13.6233 26.0687 13.0466 24.612C13.0326 24.5751 13.0111 24.5414 12.9834 24.5131C12.9558 24.4848 12.9226 24.4625 12.8859 24.4476C12.8598 24.437 12.8319 24.431 12.8037 24.4301Z" fill="#1B6EB8" stroke="#1B6EB8"/>
<path d="M22.1183 24.8048C22.0588 24.8047 22.0005 24.7874 21.9505 24.7549C21.6705 24.573 21.4347 24.3309 21.2603 24.0462C21.0859 23.7614 20.9773 23.4413 20.9425 23.1093L20.7048 20.8756C20.6962 20.7943 20.7202 20.713 20.7716 20.6494C20.823 20.5859 20.8975 20.5453 20.9787 20.5367C21.06 20.5281 21.1413 20.5521 21.2048 20.6035C21.2684 20.6548 21.3089 20.7293 21.3175 20.8106L21.5552 23.0443C21.5804 23.2854 21.6592 23.5178 21.7859 23.7245C21.9125 23.9312 22.0837 24.1069 22.2871 24.2389C22.3427 24.2751 22.3852 24.3284 22.4081 24.3908C22.431 24.4531 22.4331 24.5212 22.4141 24.5849C22.3951 24.6485 22.3561 24.7043 22.3028 24.744C22.2495 24.7836 22.1848 24.8049 22.1183 24.8048Z" fill="#1B6EB8" stroke="#1B6EB8"/>
<path d="M13.5167 24.7463L13.332 24.4972L13.1743 24.2327L13.1996 24.2176C13.3979 24.0986 13.5687 23.9387 13.7005 23.7486C13.8324 23.5585 13.9223 23.3426 13.9643 23.1151L14.2907 21.35C14.298 21.3102 14.3131 21.2723 14.3351 21.2384C14.3571 21.2044 14.3856 21.1752 14.4189 21.1523C14.4522 21.1293 14.4897 21.1132 14.5293 21.1047C14.5688 21.0963 14.6096 21.0957 14.6494 21.1031C14.6892 21.1104 14.7271 21.1255 14.761 21.1475C14.7949 21.1695 14.8242 21.198 14.8471 21.2313C14.8701 21.2646 14.8862 21.3021 14.8947 21.3416C14.9031 21.3812 14.9037 21.422 14.8963 21.4618L14.57 23.2269C14.5122 23.5403 14.3884 23.8379 14.2068 24.0999C14.0252 24.3618 13.79 24.5822 13.5167 24.7463Z" fill="#1B6EB8" stroke="#1B6EB8"/>
<path d="M19.415 41.0251H16.3386C16.257 41.0251 16.1787 40.9927 16.1209 40.9349C16.0632 40.8772 16.0308 40.7989 16.0308 40.7172V27.0951C16.0308 27.0135 16.0632 26.9352 16.1209 26.8774C16.1787 26.8197 16.257 26.7872 16.3386 26.7872C16.4203 26.7872 16.4986 26.8197 16.5564 26.8774C16.6141 26.9352 16.6465 27.0135 16.6465 27.0951V40.4093H19.1072V26.9855C19.1072 26.9039 19.1396 26.8256 19.1973 26.7678C19.2551 26.7101 19.3334 26.6776 19.415 26.6776C19.4967 26.6776 19.575 26.7101 19.6327 26.7678C19.6905 26.8256 19.7229 26.9039 19.7229 26.9855V40.6864C19.7244 40.7715 19.6933 40.8538 19.6361 40.9168C19.5789 40.9797 19.4998 41.0185 19.415 41.0251Z" fill="#1B6EB8" stroke="#1B6EB8"/>
</svg>
